<svg xmlns="http://www.w3.org/2000/svg" xmlns:xlink="http://www.w3.org/1999/xlink" viewBox="0 0 156.18 66.28"><defs><style>.cls-1{fill:url(#linear-gradient);}.cls-2{fill:url(#linear-gradient-2);}.cls-3{fill:url(#linear-gradient-3);}.cls-4{fill:url(#linear-gradient-4);}</style><linearGradient id="linear-gradient" x1="8.21" y1="67.63" x2="26.22" y2="-31.14" gradientUnits="userSpaceOnUse"><stop offset="0" stop-color="#e6d500"/><stop offset="1" stop-color="#ffecad"/></linearGradient><linearGradient id="linear-gradient-2" x1="53.31" y1="75.85" x2="71.31" y2="-22.92" xlink:href="#linear-gradient"/><linearGradient id="linear-gradient-3" x1="93.6" y1="83.2" x2="111.61" y2="-15.57" xlink:href="#linear-gradient"/><linearGradient id="linear-gradient-4" x1="128.47" y1="89.55" x2="146.47" y2="-9.22" xlink:href="#linear-gradient"/></defs><title>12</title><g id="Layer_2" data-name="Layer 2"><g id="Layer_2-2" data-name="Layer 2"><path class="cls-1" d="M19.53,4.9c-2.48,0-5,.89-8.19,3.06L3.41,13.49C1.15,15,0,16.64,0,18.5a4.15,4.15,0,0,0,4.25,4.25c1.29,0,2.39-.4,4.3-1.64l6.06-4.3h.27V59.86c0,4,2.17,6.42,5.89,6.42s5.93-2.35,5.93-6.42V12.34C26.7,7.87,23.82,4.9,19.53,4.9Z"/><path class="cls-2" d="M75.49,56H54.73v-.57L68.81,40.37c7.57-8,10.31-13,10.31-19,0-10-8.41-17.18-20.1-17.18-12,0-20.46,7.75-20.46,15.72a4.84,4.84,0,0,0,5,5.09c2.3,0,3.8-1.19,5.22-3.94,1.73-4.65,5.05-7.13,9.57-7.13,5.44,0,9.12,3.41,9.12,8.46,0,3.72-2,7.08-6.82,12.27L44.14,52.42c-3.72,3.8-4.91,5.71-4.91,8,0,3.23,2.52,5.36,6.42,5.36H75.49c3.5,0,5.58-1.82,5.58-4.83S79,56,75.49,56Z"/><path class="cls-3" d="M118.65,0c-2.17,0-3.35,1-4.67,3.87l-8.39,19.31h-.26L96.94,3.9C95.62,1,94.41,0,92.27,0c-2.51,0-4.08,1.7-4.08,4.52v27.6c0,2.42,1.06,3.69,3.1,3.69s3.17-1.32,3.17-3.69v-20h.34l7,16c1.08,2.38,2,3.2,3.61,3.2s2.5-.77,3.59-3.2l7-16h.33v20c0,2.42,1.06,3.69,3.07,3.69s3.18-1.32,3.18-3.69V4.52C122.68,1.65,121.21,0,118.65,0Z"/><path class="cls-4" d="M144.12.31h-8.9c-3.64,0-5,1.42-5,5.09V32c0,2.38,1.27,3.77,3.46,3.77s3.51-1.39,3.51-3.77V23.47h6.69c7.57,0,12.34-4.31,12.34-11.59C156.18,4.91,151.46.31,144.12.31Zm-2.5,17.74h-4.47V5.89h6.1c3.82,0,6,2.22,6,6.09C149.24,16.47,147,18.05,141.62,18.05Z"/></g></g></svg>