<svg xmlns="http://www.w3.org/2000/svg" xmlns:xlink="http://www.w3.org/1999/xlink" viewBox="0 0 103.5 61.99"><defs><style>.cls-1{fill:url(#linear-gradient);}.cls-2{fill:url(#linear-gradient-2);}</style><linearGradient id="linear-gradient" x1="-2.29" y1="68.37" x2="66.91" y2="-7.31" gradientUnits="userSpaceOnUse"><stop offset="0" stop-color="#ff4215"/><stop offset="1" stop-color="#ffc67f"/></linearGradient><linearGradient id="linear-gradient-2" x1="24.04" y1="92.46" x2="93.25" y2="16.78" xlink:href="#linear-gradient"/></defs><title>4k</title><g id="Layer_2" data-name="Layer 2"><g id="Layer_2-2" data-name="Layer 2"><path class="cls-1" d="M29.44,50.22H7.28C2.75,50.22,0,47.78,0,43.65c0-2,.53-3.69,2.18-7A288.53,288.53,0,0,1,19.89,7.28C23.62,1.86,26.46,0,31.08,0c6,0,9.59,3.2,9.59,8.48v32h3c3.2,0,5.15,2,5.15,5s-1.91,4.8-5.15,4.8h-3V55.9C40.67,59.68,38.54,62,35,62s-5.59-2.31-5.59-6.09Zm0-9.77V10.3h-.62C23.49,18.38,14.88,33.08,11,40.14v.31Z"/><path class="cls-2" d="M91.47,57.77,75.21,35.08l-6.39,6.57V55.42c0,4.12-2.13,6.48-5.9,6.48s-6.09-2.4-6.09-6.48V6.88C56.83,2.8,59,.4,62.83.4s6,2.4,6,6.48V27.4h.67l22.29-24c1.82-2,3.28-2.84,5-2.84a5.22,5.22,0,0,1,5.33,5.24c0,1.55-.57,2.66-2.48,4.7L84.14,27.35l16.65,22.78C103,53.06,103.5,54.3,103.5,56a5.54,5.54,0,0,1-5.86,5.73C95.37,61.72,93.46,60.52,91.47,57.77Z"/></g></g></svg>